<svg width="204" height="15" viewBox="0 0 204 39" fill="none" xmlns="http://www.w3.org/2000/svg">
<g clip-path="url(#clip0_259_392)">
<path d="M86.6364 1.30176H84.9583L68.2902 27.3512V27.286H67.5813L52.764 1.30176H51.0837H49.9306L44.9526 38.0942H46.3368L50.9783 3.86189L65.3694 29.2936H68.2521L84.3392 4.42308L88.4602 38.0942H91.6278L86.6364 1.30176Z" fill="white"/>
<path d="M33.0986 38.5402L27.3064 31.8208C28.9654 29.1464 29.8753 25.4707 29.8753 21.0964H27.6435C27.6435 24.4806 27.1323 27.9404 26.0593 30.3745L19.3043 22.536H16.9755L25.1362 32.0166C24.1712 33.4072 22.5077 35.2695 20.9897 36.2952C18.8372 37.7481 16.3101 38.7382 14.0033 38.7382C11.0047 38.7382 8.02817 37.2431 6.13561 35.2183C4.29371 33.2514 3.82002 30.9308 3.82002 28.0962C3.82002 25.7288 4.46116 22.6472 7.2218 19.8571C8.85659 18.2017 10.1917 16.9846 13.8513 15.5117C19.377 13.3223 23.0189 11.2976 23.0189 7.09907C23.0189 4.83627 21.9151 3.06074 20.4852 1.77026C19.0597 0.477546 17.1407 -0.169922 14.7392 -0.169922C12.3377 -0.169922 10.4693 0.459746 8.90726 1.71463C7.30552 3.08077 6.30526 4.61378 6.30526 7.08795C6.30526 8.12479 6.89792 9.89364 8.09207 11.4578C9.03945 12.6971 11.3991 15.5073 11.3991 15.5073C5.02078 18.4242 1.37885 22.8274 1.24446 28.1518C1.16734 31.5605 2.3681 34.3439 4.84231 36.4955C7.16892 38.5402 10.1785 39.5659 13.8777 39.5659C18.3701 39.5659 22.9572 37.2987 26.2312 33.2982L30.7434 38.5402H33.0898H33.0986ZM8.99979 9.98264C8.048 8.36509 7.88277 7.26595 7.88277 6.54061C7.88277 5.25235 8.29477 3.78831 9.69381 2.37545C10.8902 1.16729 13.0295 0.421922 14.748 0.421922C16.6141 0.421922 18.3965 0.924766 19.8727 2.3888C20.6218 3.13194 21.4105 4.7495 21.4105 6.50946C21.4105 8.08919 20.7165 9.92257 19.3439 11.2487C18.5265 12.0674 17.5042 12.6726 16.6648 13.1733C16.4533 13.3001 14.6665 14.1589 14.1377 14.3836C14.1091 14.3948 13.4305 14.6618 13.0427 14.8131C13.0427 14.8131 10.0551 11.7715 9.002 9.98042L8.99979 9.98264Z" fill="white"/>
<path d="M131.162 6.82695C128.079 3.14792 123.561 1.50566 117.622 1.31062C117.349 1.30176 117.08 1.30176 116.819 1.30176C116.557 1.30176 116.337 1.30176 116.071 1.31062C110.132 1.5123 105.596 3.14792 102.476 6.82695C99.689 10.1381 98.2957 14.5485 98.2957 20.067C98.2957 25.5856 99.689 29.996 102.476 33.3071C105.556 36.9861 110.074 38.6262 116.013 38.8212C116.286 38.8301 116.555 38.8301 116.816 38.8301C117.078 38.8301 117.3 38.8301 117.564 38.8212C123.503 38.6217 128.039 36.9839 131.159 33.3071C133.946 29.996 135.339 25.5856 135.339 20.067C135.339 14.5485 133.946 10.1381 131.159 6.82695H131.162ZM128.215 32.1524C125.6 35.4569 121.788 38.1341 116.793 38.1341C111.831 38.1341 108.033 35.4569 105.42 32.1524C103.006 29.0784 101.8 25.0492 101.8 20.067H101.798C101.798 15.0516 103.006 11.0224 105.422 7.98163C108.035 4.67716 111.847 1.99989 116.844 1.99989C121.806 1.99989 125.605 4.67716 128.218 7.98163C130.632 11.0578 131.838 15.0848 131.838 20.067C131.838 25.0825 130.629 29.1117 128.215 32.1524Z" fill="white"/>
<path d="M164.878 22.2951C162.2 20.8869 157.423 19.8169 154.898 19.2002C150.524 18.1346 148.115 16.5673 146.841 15.5658C145.142 14.1996 144.293 12.5814 144.293 10.7156C144.293 8.11367 145.68 5.42108 147.728 4.02173C149.444 2.81249 151.259 2.05424 153.984 2.05424C156.708 2.05424 159.541 2.77712 161.494 4.21848C163.695 5.85216 164.721 8.96477 164.799 11.8652H168.266C168.071 8.49611 166.76 5.89637 164.327 4.06152C161.974 2.22667 158.889 1.41977 154.949 1.30924C154.665 1.3004 153.601 1.29819 153.336 1.30924C149.751 1.4662 146.811 2.09403 144.535 3.66139C142.066 5.29507 140.829 7.64722 140.829 10.7156C140.829 13.1496 141.718 15.263 143.782 16.6667C145.599 17.9025 148.086 18.7536 152.872 19.9186C153.338 20.0181 160.688 21.9878 161.963 22.7195C164.546 24.1211 165.839 26.2057 165.839 28.9735C165.839 31.7413 165.075 33.428 162.864 35.3071C160.161 37.6039 157.757 38.0814 154.893 38.0881C151.544 38.0969 148.541 36.6335 146.547 34.9091C144.407 33.0566 143.542 30.2557 143.311 27.121H139.785C140.054 30.7907 141.443 33.6402 143.955 35.674C146.424 37.7742 149.789 38.7336 153.97 38.8242C154.268 38.8309 155.333 38.8331 155.584 38.8242C159.597 38.7071 162.803 37.993 165.313 36.3262C168.053 34.4582 169.42 31.8584 169.42 28.5225C169.42 25.5204 167.851 23.858 164.878 22.2951Z" fill="white"/>
<path d="M198.96 22.2951C196.282 20.8869 191.505 19.8169 188.979 19.2002C184.603 18.1346 182.196 16.5673 180.921 15.5658C179.223 14.1996 178.374 12.5814 178.374 10.7156C178.374 8.11367 179.761 5.42108 181.809 4.02173C183.523 2.81249 185.34 2.05424 188.065 2.05424C190.79 2.05424 193.622 2.77712 195.574 4.21848C197.775 5.85216 198.803 8.96477 198.879 11.8652H202.346C202.151 8.49611 200.84 5.89637 198.407 4.06152C196.054 2.22667 192.968 1.41977 189.029 1.30924C188.744 1.3004 187.68 1.29819 187.418 1.30924C183.83 1.4662 180.89 2.09403 178.616 3.66139C176.144 5.29507 174.907 7.64722 174.907 10.7156C174.907 13.1496 175.797 15.263 177.86 16.6667C179.678 17.9025 182.165 18.7536 186.951 19.9186C187.418 20.0181 194.767 21.9878 196.043 22.7195C198.626 24.1211 199.919 26.2057 199.919 28.9735C199.919 31.7413 199.155 33.428 196.943 35.3071C194.241 37.6039 191.836 38.0814 188.973 38.0881C185.623 38.0969 182.62 36.6335 180.626 34.9091C178.486 33.0566 177.621 30.2557 177.39 27.121H173.865C174.134 30.7907 175.523 33.6402 178.035 35.674C180.502 37.7742 183.87 38.7336 188.052 38.8242C188.35 38.8309 189.414 38.8331 189.665 38.8242C193.678 38.7071 196.883 37.993 199.393 36.3262C202.133 34.4582 203.5 31.8584 203.5 28.5225C203.5 25.5204 201.931 23.858 198.958 22.2951H198.96Z" fill="white"/>
</g>
<defs>
<clipPath id="clip0_259_392">
<rect width="203" height="39" fill="white" transform="translate(0.5)"/>
</clipPath>
</defs>
</svg>
