<svg width="148" height="42" viewBox="0 0 148 42" fill="none" xmlns="http://www.w3.org/2000/svg">
<g clip-path="url(#clip0_235_291)">
<path d="M5.51853 41.1425V41.2462C5.51853 41.4813 5.54623 41.6197 5.58777 41.6612C5.62932 41.7027 5.78165 41.7234 6.02399 41.7234C6.39097 41.7234 6.70255 41.6819 6.97259 41.592C7.24263 41.509 7.40881 41.3914 7.48497 41.2462C7.51267 41.1909 7.54037 41.1701 7.56806 41.1701C7.60268 41.1701 7.61653 41.1909 7.60961 41.2255C7.60268 41.3499 7.54037 41.4952 7.41573 41.6473C7.24955 41.8617 6.97951 41.9655 6.59869 41.9655C6.53637 41.9655 6.46713 41.9655 6.38404 41.9585L6.06554 41.9378C5.87859 41.924 5.68471 41.917 5.47699 41.917C5.23464 41.917 5.03385 41.9309 4.87459 41.9516C4.80535 41.9585 4.74996 41.9655 4.70841 41.9655C4.65995 41.9655 4.63225 41.9516 4.63225 41.917C4.63225 41.8894 4.65995 41.8617 4.71534 41.8479C4.8469 41.8064 4.94383 41.7511 4.98538 41.6681C5.03385 41.592 5.05462 41.4537 5.05462 41.267V38.5214C5.05462 38.2586 4.95076 38.1133 4.74303 38.0718L4.61148 38.0442C4.56301 38.0372 4.54224 38.0165 4.54224 37.9888C4.54224 37.9473 4.57686 37.9197 4.63917 37.9197C4.68072 37.9197 4.74303 37.9197 4.8192 37.9335C4.95076 37.9473 5.10309 37.9543 5.26234 37.9543C5.44237 37.9543 5.60162 37.9543 5.74703 37.9404C5.82319 37.9404 5.86474 37.9404 5.87166 37.9404C5.92013 37.9404 5.9409 37.9543 5.9409 37.9819C5.9409 38.0234 5.91321 38.0511 5.85781 38.0649L5.75395 38.0857C5.58085 38.1272 5.49084 38.3 5.49084 38.6113V41.1494L5.51853 41.1425Z" fill="#4A3937"/>
<path d="M13.3496 40.2434V38.7357C13.3496 38.4937 13.3149 38.3139 13.2457 38.2101C13.1765 38.0995 13.0588 38.0372 12.8856 38.0234C12.8303 38.0234 12.8026 37.9957 12.8026 37.9612C12.8026 37.9197 12.8233 37.8989 12.858 37.8989C12.8995 37.8989 12.9618 37.9058 13.0449 37.9197C13.1211 37.9335 13.2111 37.9404 13.308 37.9404C13.5227 37.9404 13.6611 37.9404 13.7096 37.9335C13.7789 37.9335 13.8204 37.9266 13.8342 37.9266C13.8689 37.9266 13.8896 37.9473 13.8896 37.975C13.8896 38.0027 13.8689 38.0234 13.8273 38.0442C13.7096 38.0926 13.6334 38.1617 13.5988 38.2516C13.5642 38.3415 13.5434 38.5006 13.5434 38.7496V40.195C13.5434 40.7275 13.4396 41.1355 13.2249 41.4191C13.0934 41.5989 12.8995 41.7441 12.6502 41.8548C12.401 41.9585 12.1309 42.0139 11.847 42.0139C11.5147 42.0139 11.2169 41.9516 10.9538 41.8202C10.6907 41.6888 10.4968 41.5159 10.3722 41.2946C10.2337 41.0387 10.1645 40.7137 10.1645 40.3056V38.6597C10.1645 38.4522 10.1299 38.307 10.0745 38.2309C10.0191 38.1548 9.90137 38.0995 9.72826 38.0718C9.67287 38.0649 9.6521 38.0442 9.6521 38.0096C9.6521 37.9612 9.68672 37.9404 9.76289 37.9404C9.81135 37.9404 9.88059 37.9404 9.96368 37.9404C10.0537 37.9404 10.116 37.9473 10.1576 37.9473H10.6076C10.6076 37.9473 10.6838 37.9404 10.7738 37.9335C10.843 37.9335 10.8984 37.9266 10.9261 37.9266C10.9677 37.9266 10.9954 37.9404 10.9954 37.975C10.9954 38.0096 10.9677 38.0372 10.9054 38.0442C10.7946 38.0718 10.7184 38.1202 10.6769 38.1894C10.6422 38.2655 10.6215 38.39 10.6215 38.5836V40.2434C10.6215 40.7413 10.7046 41.101 10.8638 41.3154C11.0854 41.6197 11.4524 41.7718 11.9717 41.7718C12.4356 41.7718 12.7818 41.6473 13.0103 41.3914C13.2388 41.1355 13.3565 40.7552 13.3565 40.2434" fill="#4A3937"/>
<path d="M18.4596 39.9253L19.2074 41.0526C19.4013 41.343 19.5536 41.5505 19.6713 41.6819C19.7475 41.7649 19.8513 41.8202 19.9967 41.8479C20.066 41.8617 20.1006 41.8825 20.1006 41.917C20.1006 41.9516 20.0729 41.9655 20.0244 41.9655C19.9967 41.9655 19.9621 41.9654 19.9067 41.9585C19.8167 41.9447 19.6713 41.9378 19.4705 41.9378H19.3251L18.9443 41.9655C18.8958 41.9724 18.8543 41.9793 18.8266 41.9793C18.7781 41.9793 18.7504 41.9655 18.7504 41.9309C18.7504 41.8963 18.785 41.8686 18.8542 41.8479C18.965 41.8202 19.0204 41.758 19.0204 41.6681C19.0204 41.6127 18.9858 41.5298 18.9166 41.426L18.148 40.2711C18.1134 40.2157 18.0857 40.195 18.0718 40.195C18.0511 40.195 18.0095 40.2434 17.9403 40.3471C17.7672 40.6099 17.6633 40.7552 17.6425 40.7898L17.3517 41.2047C17.2063 41.4122 17.1302 41.5643 17.1302 41.6612C17.1302 41.7649 17.1717 41.8271 17.2686 41.841L17.421 41.8548C17.4694 41.8548 17.4902 41.8825 17.4902 41.924C17.4902 41.9585 17.4694 41.9724 17.421 41.9724C17.3863 41.9724 17.3517 41.9724 17.2963 41.9585C17.1855 41.9378 17.0609 41.9309 16.9363 41.9309C16.7909 41.9309 16.6316 41.9378 16.4654 41.9516C16.41 41.9516 16.3754 41.9585 16.3477 41.9585C16.2854 41.9585 16.2508 41.9378 16.2508 41.9032C16.2508 41.8755 16.2716 41.8479 16.32 41.841C16.4516 41.8064 16.5555 41.758 16.6385 41.6957C16.7216 41.6335 16.8186 41.5159 16.9432 41.343C17.0609 41.177 17.1648 41.0318 17.2409 40.9212C17.4902 40.5823 17.6356 40.3817 17.6841 40.3056C17.7533 40.2019 17.8018 40.1327 17.8156 40.112C17.871 40.0359 17.8987 39.9875 17.8918 39.9529C17.8918 39.9253 17.871 39.8838 17.8364 39.8354L17.781 39.7385L17.1371 38.7911C16.9155 38.4591 16.7632 38.2586 16.6732 38.1756C16.5831 38.0926 16.4585 38.0442 16.3062 38.0234C16.23 38.0165 16.1885 37.9888 16.1885 37.9543C16.1885 37.9128 16.2231 37.8989 16.2923 37.8989C16.4308 37.8989 16.6524 37.9058 16.9432 37.9335C17.0055 37.9335 17.054 37.9404 17.0955 37.9404C17.1163 37.9404 17.2271 37.9335 17.421 37.9197C17.4556 37.9197 17.4971 37.9197 17.5317 37.9197C17.5941 37.9197 17.6218 37.9404 17.6218 37.9819C17.6218 38.0096 17.5871 38.0303 17.5248 38.0442C17.414 38.0649 17.3586 38.1133 17.3586 38.2032C17.3586 38.2586 17.4002 38.3554 17.4902 38.4868L18.1757 39.5103C18.1757 39.5103 18.1965 39.538 18.2103 39.538C18.2242 39.538 18.2449 39.5172 18.2796 39.4688L18.8819 38.6182L18.9789 38.4868C19.0481 38.39 19.0897 38.307 19.0897 38.2447C19.0897 38.1548 19.0481 38.0995 18.9581 38.0787L18.8542 38.0511C18.8058 38.0372 18.7781 38.0096 18.7781 37.975C18.7781 37.9473 18.7989 37.9335 18.8404 37.9335C18.8681 37.9335 18.9096 37.9335 18.9581 37.9404C19.0412 37.9473 19.1866 37.9543 19.3943 37.9543C19.5051 37.9543 19.609 37.9543 19.7128 37.9404C19.7682 37.9404 19.8167 37.9335 19.8513 37.9335C19.8998 37.9335 19.9275 37.9473 19.9275 37.9819C19.9275 38.0234 19.8998 38.0511 19.8513 38.0649L19.7059 38.1202C19.5674 38.1756 19.4082 38.3208 19.2351 38.5559L18.4665 39.621C18.4111 39.704 18.3765 39.7593 18.3765 39.787C18.3765 39.8146 18.3834 39.8423 18.4111 39.8769L18.4596 39.9529V39.9253Z" fill="#4A3937"/>
<path d="M25.9238 40.2434V38.7357C25.9238 38.4937 25.8892 38.3139 25.8199 38.2101C25.7507 38.0995 25.633 38.0372 25.4599 38.0234C25.4045 38.0234 25.3768 37.9957 25.3768 37.9612C25.3768 37.9197 25.3976 37.8989 25.4322 37.8989C25.4737 37.8989 25.536 37.9058 25.6191 37.9197C25.6953 37.9335 25.7853 37.9404 25.8822 37.9404C26.0969 37.9404 26.2354 37.9404 26.2838 37.9335C26.3531 37.9335 26.3946 37.9266 26.4085 37.9266C26.4431 37.9266 26.4639 37.9473 26.4639 37.975C26.4639 38.0027 26.4431 38.0234 26.4015 38.0442C26.2838 38.0926 26.2077 38.1617 26.173 38.2516C26.1384 38.3415 26.1246 38.5006 26.1246 38.7496V40.195C26.1246 40.7275 26.0207 41.1355 25.8061 41.4191C25.6745 41.5989 25.4806 41.7441 25.2314 41.8548C24.9821 41.9585 24.7121 42.0139 24.4282 42.0139C24.0958 42.0139 23.7981 41.9516 23.535 41.8202C23.2719 41.6888 23.078 41.5159 22.9533 41.2946C22.8149 41.0387 22.7456 40.7137 22.7456 40.3056V38.6597C22.7456 38.4522 22.711 38.307 22.6556 38.2309C22.6002 38.1548 22.4825 38.0995 22.3094 38.0718C22.254 38.0649 22.2263 38.0442 22.2263 38.0096C22.2263 37.9612 22.2609 37.9404 22.3371 37.9404C22.3856 37.9404 22.4548 37.9404 22.5379 37.9404C22.6279 37.9404 22.6902 37.9473 22.7318 37.9473H23.1818C23.1818 37.9473 23.258 37.9404 23.348 37.9335C23.4173 37.9335 23.4727 37.9266 23.5004 37.9266C23.5419 37.9266 23.5696 37.9404 23.5696 37.975C23.5696 38.0096 23.5419 38.0372 23.4796 38.0442C23.3688 38.0718 23.2926 38.1202 23.2511 38.1894C23.2165 38.2655 23.1957 38.39 23.1957 38.5836V40.2434C23.1957 40.7413 23.2788 41.101 23.438 41.3154C23.6596 41.6197 24.0266 41.7718 24.5459 41.7718C25.0098 41.7718 25.356 41.6473 25.5845 41.3914C25.813 41.1355 25.9307 40.7552 25.9307 40.2434" fill="#4A3937"/>
<path d="M31.1099 39.9252L31.92 41.1147L32.01 41.253C32.2593 41.6196 32.4877 41.8063 32.7024 41.8201H32.7993C32.834 41.8271 32.8478 41.8409 32.8478 41.8685C32.8478 41.8962 32.7993 41.9239 32.7162 41.9515C32.6332 41.9723 32.5362 41.9861 32.4254 41.9861C32.2523 41.9861 32.0931 41.9377 31.9546 41.8409C31.8161 41.7441 31.6707 41.585 31.5322 41.3706L30.8052 40.2641L30.7636 40.2018C30.7152 40.1258 30.639 40.0843 30.5352 40.0843H30.1474L30.0851 40.0981C30.0851 40.0981 30.0505 40.1465 30.0505 40.188V41.2185C30.0505 41.3844 30.0643 41.502 30.0782 41.5642C30.0989 41.6265 30.1336 41.6818 30.1959 41.7302C30.279 41.7994 30.4105 41.8409 30.5836 41.8547C30.6529 41.8616 30.6875 41.8824 30.6944 41.9239C30.6944 41.9654 30.6667 41.9792 30.5975 41.9792C30.5698 41.9792 30.5144 41.9792 30.4244 41.9654C30.3413 41.9585 30.2236 41.9515 30.0505 41.9515H29.6212C29.5519 41.9515 29.4758 41.9515 29.3788 41.9654C29.3027 41.9723 29.2473 41.9792 29.2196 41.9792C29.1711 41.9792 29.1434 41.9585 29.1434 41.917C29.1434 41.8893 29.1711 41.8685 29.2196 41.8616C29.3719 41.834 29.4758 41.7648 29.5242 41.6472C29.5727 41.5366 29.5935 41.3153 29.5935 40.9833V38.5835C29.5935 38.2792 29.4827 38.1132 29.268 38.0717L29.1296 38.051C29.0672 38.0372 29.0396 38.0164 29.0396 37.9818C29.0396 37.9403 29.0742 37.9196 29.1365 37.9196C29.1503 37.9196 29.2196 37.9196 29.3442 37.9334C29.4135 37.9334 29.5035 37.9403 29.6073 37.9403C29.6973 37.9403 29.8497 37.9403 30.0643 37.9196C30.2166 37.9127 30.3551 37.9058 30.4798 37.9058C30.9298 37.9058 31.2691 37.9887 31.4907 38.1547C31.7192 38.3207 31.83 38.5766 31.83 38.9086C31.83 39.3443 31.5876 39.6831 31.1099 39.9252ZM30.2513 39.8629H30.5836C30.8398 39.8629 31.0406 39.7938 31.186 39.6486C31.3314 39.5102 31.4076 39.3166 31.4076 39.0745C31.4076 38.791 31.3107 38.5559 31.1099 38.376C30.9091 38.1962 30.6598 38.0994 30.3482 38.0994C30.2305 38.0994 30.1543 38.1202 30.1059 38.1547C30.0643 38.1962 30.0435 38.2585 30.0435 38.3622V39.6486C30.0435 39.7385 30.0574 39.8007 30.0851 39.8215C30.1128 39.8491 30.1682 39.856 30.2582 39.856" fill="#4A3937"/>
<path d="M36.6216 41.3291C36.6216 41.5573 36.6423 41.6957 36.677 41.7441C36.7116 41.7925 36.8224 41.8271 36.9955 41.8478C37.0578 41.8478 37.0855 41.8755 37.0855 41.91C37.0855 41.9585 37.0509 41.9792 36.9816 41.9792C36.9608 41.9792 36.9124 41.9792 36.8293 41.9654C36.7808 41.9654 36.7116 41.9515 36.6146 41.9446L36.3861 41.9308H36.1577C36.0122 41.9308 35.9153 41.9377 35.8668 41.9446C35.8114 41.9515 35.7699 41.9585 35.7561 41.9585C35.7145 41.9585 35.6868 41.9446 35.6868 41.91C35.6868 41.8755 35.7214 41.8478 35.7837 41.8409C35.9499 41.8201 36.0538 41.7717 36.0953 41.7095C36.1369 41.6472 36.1646 41.5089 36.1646 41.3014V40.3056C36.1646 40.1811 36.1646 40.0912 36.1438 40.0289C36.13 39.9667 36.0815 39.8837 36.0192 39.78L35.2021 38.4867L35.1052 38.3276C35.0498 38.2377 34.9667 38.1616 34.8628 38.1063C34.759 38.051 34.6551 38.0233 34.5582 38.0233C34.5028 38.0233 34.4751 38.0026 34.4751 37.968C34.4751 37.9265 34.5028 37.9058 34.5651 37.9058C34.6136 37.9058 34.662 37.9058 34.7105 37.9127C34.8352 37.9265 34.9667 37.9334 35.1052 37.9334C35.3891 37.9334 35.576 37.9334 35.6522 37.9196C35.7353 37.9127 35.7907 37.9058 35.8045 37.9058C35.8599 37.9058 35.8876 37.9265 35.8876 37.9611C35.8876 37.9888 35.8668 38.0095 35.8184 38.0233C35.6868 38.0648 35.6245 38.1271 35.6245 38.2239C35.6245 38.2723 35.666 38.3691 35.7491 38.5074L35.8322 38.6458L36.4485 39.6071L36.49 39.6624C36.49 39.6624 36.5246 39.7039 36.5454 39.7039C36.5662 39.7039 36.5869 39.6901 36.6077 39.6624L36.6354 39.6209L37.0578 38.9777L37.2032 38.7495C37.3417 38.5351 37.404 38.3899 37.404 38.3138C37.404 38.1824 37.2794 38.0925 37.037 38.0302C36.9885 38.0164 36.9678 37.9957 36.9678 37.9611C36.9678 37.9265 36.9955 37.9127 37.037 37.9127C37.0647 37.9127 37.1201 37.9127 37.1893 37.9265C37.2447 37.9334 37.3832 37.9403 37.5979 37.9403C37.7987 37.9403 37.9233 37.9403 37.9787 37.9334C38.0548 37.9265 38.1033 37.9196 38.131 37.9196C38.1864 37.9196 38.2072 37.9334 38.2072 37.968C38.2072 37.9957 38.1864 38.0233 38.1379 38.0372C37.9648 38.0925 37.8194 38.2031 37.7086 38.3622L37.5148 38.6458L36.8016 39.7039L36.7323 39.8007C36.6562 39.9044 36.6216 40.0013 36.6216 40.0912V41.3153V41.3291Z" fill="#4A3937"/>
<path d="M46.1353 37.8643C46.7446 37.8643 47.2431 38.0511 47.6378 38.4314C48.0256 38.8049 48.2264 39.289 48.2264 39.8769C48.2264 40.4993 48.0325 41.0111 47.6378 41.4053C47.2431 41.8064 46.7377 42 46.1284 42C45.519 42 44.9928 41.8064 44.6051 41.426C44.2173 41.0456 44.0234 40.5477 44.0234 39.9253C44.0234 39.6555 44.0719 39.3927 44.1758 39.1299C44.2796 38.8671 44.4181 38.6458 44.5912 38.466C44.7712 38.2793 45.0067 38.1341 45.2905 38.0234C45.5675 37.9127 45.8583 37.8574 46.1491 37.8574M45.9622 38.0441C45.5121 38.0441 45.1521 38.1963 44.882 38.5006C44.6189 38.8049 44.4804 39.2129 44.4804 39.7316C44.4804 40.3195 44.6535 40.8174 44.9928 41.2185C45.3321 41.6196 45.7475 41.8271 46.2461 41.8271C46.6961 41.8271 47.07 41.6611 47.3678 41.3361C47.6586 41.0041 47.8109 40.5892 47.8109 40.0843C47.8109 39.5034 47.6309 39.0193 47.2847 38.632C46.9316 38.2447 46.4953 38.0511 45.9691 38.0511" fill="#4A3937"/>
<path d="M54.368 40.2434V38.7357C54.368 38.4937 54.3334 38.3139 54.2642 38.2101C54.1949 38.0995 54.0772 38.0372 53.9041 38.0234C53.8487 38.0234 53.821 37.9957 53.821 37.9612C53.821 37.9197 53.8418 37.8989 53.8764 37.8989C53.918 37.8989 53.9803 37.9058 54.0634 37.9197C54.1395 37.9335 54.2295 37.9404 54.3265 37.9404C54.5411 37.9404 54.6796 37.9404 54.7281 37.9335C54.7973 37.9335 54.8389 37.9266 54.8527 37.9266C54.8873 37.9266 54.9081 37.9473 54.9081 37.975C54.9081 38.0027 54.8873 38.0234 54.8458 38.0442C54.7281 38.0926 54.6519 38.1617 54.6173 38.2516C54.5827 38.3415 54.5688 38.5006 54.5688 38.7496V40.195C54.5688 40.7275 54.465 41.1355 54.2503 41.4191C54.1188 41.5989 53.9249 41.7441 53.6756 41.8548C53.4263 41.9585 53.1563 42.0139 52.8724 42.0139C52.5401 42.0139 52.2423 41.9516 51.9792 41.8202C51.7161 41.6888 51.5222 41.5159 51.3976 41.2946C51.2591 41.0387 51.1899 40.7137 51.1899 40.3056V38.6597C51.1899 38.4522 51.1553 38.307 51.0999 38.2309C51.0445 38.1548 50.9268 38.0995 50.7537 38.0718C50.6983 38.0649 50.6775 38.0442 50.6775 38.0096C50.6775 37.9612 50.7121 37.9404 50.7883 37.9404C50.8367 37.9404 50.906 37.9404 50.9891 37.9404C51.0791 37.9404 51.1414 37.9473 51.1829 37.9473H51.633C51.633 37.9473 51.7092 37.9404 51.7992 37.9335C51.8684 37.9335 51.9238 37.9266 51.9515 37.9266C51.9931 37.9266 52.0208 37.9404 52.0208 37.975C52.0208 38.0096 51.9931 38.0372 51.9307 38.0442C51.82 38.0718 51.7438 38.1202 51.7023 38.1894C51.6676 38.2655 51.6469 38.39 51.6469 38.5836V40.2434C51.6469 40.7413 51.73 41.101 51.8892 41.3154C52.1108 41.6197 52.4778 41.7718 52.9971 41.7718C53.461 41.7718 53.8072 41.6473 54.0357 41.3914C54.2642 41.1355 54.3819 40.7552 54.3819 40.2434" fill="#4A3937"/>
<path d="M60.3433 38.2447H59.5194C59.4363 38.2447 59.3809 38.2586 59.3601 38.2793C59.3393 38.3001 59.3255 38.3623 59.3255 38.4522V41.4329C59.3393 41.6612 59.464 41.7995 59.7132 41.841C59.7825 41.8548 59.8171 41.8756 59.8171 41.9101C59.8171 41.9516 59.7894 41.9724 59.734 41.9724C59.7132 41.9724 59.6648 41.9724 59.5886 41.9516C59.554 41.9516 59.464 41.9447 59.3255 41.9447H58.8824C58.7993 41.9447 58.73 41.9447 58.6746 41.9516C58.5638 41.9655 58.5015 41.9724 58.4808 41.9724C58.4254 41.9724 58.3907 41.9516 58.3907 41.9101C58.3907 41.8825 58.4254 41.8617 58.4877 41.8548C58.64 41.8341 58.737 41.7926 58.7923 41.7303C58.8477 41.6681 58.8685 41.5505 58.8685 41.3914V38.4176C58.8685 38.3485 58.8547 38.3001 58.8339 38.2862C58.8131 38.2724 58.7646 38.2586 58.6885 38.2586H57.913C57.7537 38.2586 57.6429 38.2931 57.5668 38.3554C57.4975 38.4176 57.4421 38.5352 57.4006 38.715C57.3798 38.7911 57.3591 38.8257 57.3244 38.8257C57.2898 38.8257 57.269 38.798 57.269 38.7496C57.269 38.7081 57.2829 38.632 57.3037 38.5283C57.3314 38.39 57.3452 38.2724 57.3452 38.1825C57.3452 38.0926 57.3521 38.0373 57.3798 38.0027C57.4006 37.975 57.4421 37.9612 57.5114 37.9612H60.6549C60.7588 37.9612 60.828 37.975 60.8488 37.9958C60.8696 38.0165 60.8834 38.0857 60.8834 38.2032C60.8834 38.3208 60.8834 38.4038 60.8973 38.4522C60.9042 38.5214 60.9111 38.5629 60.9111 38.5974C60.9111 38.6528 60.8903 38.6873 60.8488 38.6943C60.8142 38.6943 60.7934 38.6666 60.7796 38.6044C60.7519 38.466 60.7103 38.3761 60.6549 38.3346C60.5995 38.2931 60.4887 38.2724 60.3226 38.2724" fill="#4A3937"/>
<path d="M63.7777 38.6388C63.7777 38.4383 63.7431 38.3 63.6808 38.2031C63.6115 38.1132 63.5007 38.0579 63.3484 38.0441C63.2861 38.0441 63.2515 38.0164 63.2515 37.9818C63.2515 37.9473 63.2792 37.9265 63.3276 37.9265L63.5561 37.9403C63.5561 37.9403 63.6461 37.9403 63.7638 37.9403C63.9577 37.9403 64.117 37.9403 64.2208 37.9265L64.4909 37.8988C64.6086 37.8919 64.7332 37.885 64.8786 37.885C65.6749 37.885 66.2773 38.0856 66.672 38.4867C67.0389 38.8532 67.219 39.3235 67.219 39.8906C67.219 40.2571 67.1428 40.596 66.9766 40.9003C66.8174 41.2046 66.5958 41.4467 66.3119 41.6265C65.9519 41.8478 65.5641 41.9654 65.1348 41.9654C65.0863 41.9654 64.9963 41.9654 64.8648 41.9515C64.6017 41.9377 64.3801 41.9239 64.1862 41.9239C63.9785 41.9239 63.7985 41.9377 63.6461 41.9584C63.5769 41.9654 63.5215 41.9723 63.48 41.9792C63.4107 41.9792 63.3761 41.9584 63.3761 41.91C63.3761 41.8755 63.4038 41.8547 63.4592 41.8478C63.5907 41.8201 63.6808 41.7717 63.7154 41.7026C63.7569 41.6334 63.7708 41.4882 63.7708 41.2738V38.6458L63.7777 38.6388ZM64.2278 38.4037V41.4052C64.2278 41.5228 64.2901 41.6057 64.4078 41.6472C64.5116 41.6887 64.6432 41.7164 64.8025 41.751C64.9617 41.7786 65.1002 41.7925 65.211 41.7925C65.5433 41.7925 65.8411 41.7095 66.1111 41.5435C66.5612 41.2669 66.7897 40.7897 66.7897 40.1188C66.7897 39.7523 66.7204 39.4203 66.575 39.1091C66.4365 38.8048 66.2427 38.5628 65.9934 38.3899C65.6887 38.1755 65.3287 38.0648 64.8925 38.0648C64.5878 38.0648 64.387 38.0994 64.3039 38.1616C64.2555 38.2031 64.2278 38.2792 64.2278 38.4037Z" fill="#4A3937"/>
<path d="M71.9136 37.8643C72.5229 37.8643 73.0215 38.0511 73.4161 38.4314C73.8039 38.8049 74.0047 39.289 74.0047 39.8769C74.0047 40.4993 73.8108 41.0111 73.4161 41.4053C73.0215 41.8064 72.516 42 71.9067 42C71.2974 42 70.7711 41.8064 70.3834 41.426C69.9956 41.0456 69.8018 40.5477 69.8018 39.9253C69.8018 39.6555 69.8502 39.3927 69.9541 39.1299C70.0579 38.8671 70.1964 38.6458 70.3695 38.466C70.5496 38.2793 70.785 38.1341 71.0689 38.0234C71.3458 37.9127 71.6366 37.8574 71.9275 37.8574M71.7405 38.0441C71.2904 38.0441 70.9304 38.1963 70.6603 38.5006C70.3972 38.8049 70.2587 39.2129 70.2587 39.7316C70.2587 40.3195 70.4319 40.8174 70.7711 41.2185C71.1104 41.6196 71.5328 41.8271 72.0244 41.8271C72.4745 41.8271 72.8484 41.6611 73.1461 41.3361C73.4369 41.0041 73.5892 40.5892 73.5892 40.0843C73.5892 39.5034 73.4092 39.0193 73.063 38.632C72.7099 38.2447 72.2667 38.0511 71.7474 38.0511" fill="#4A3937"/>
<path d="M78.6993 37.8643C79.3086 37.8643 79.8071 38.0511 80.2018 38.4314C80.5895 38.8049 80.7903 39.289 80.7903 39.8769C80.7903 40.4993 80.5964 41.0111 80.2018 41.4053C79.8071 41.8064 79.3016 42 78.6923 42C78.083 42 77.5568 41.8064 77.169 41.426C76.7813 41.0456 76.5874 40.5477 76.5874 39.9253C76.5874 39.6555 76.6359 39.3927 76.7397 39.1299C76.8436 38.8671 76.9821 38.6458 77.1552 38.466C77.3352 38.2793 77.5706 38.1341 77.8545 38.0234C78.1315 37.9127 78.4223 37.8574 78.7131 37.8574M78.5261 38.0441C78.0761 38.0441 77.716 38.1963 77.446 38.5006C77.1829 38.8049 77.0444 39.2129 77.0444 39.7316C77.0444 40.3195 77.2175 40.8174 77.5568 41.2185C77.8961 41.6196 78.3115 41.8271 78.81 41.8271C79.2601 41.8271 79.634 41.6611 79.9317 41.3361C80.2225 41.0041 80.3749 40.5892 80.3749 40.0843C80.3749 39.5034 80.1948 39.0193 79.8486 38.632C79.4955 38.2447 79.0524 38.0511 78.5331 38.0511" fill="#4A3937"/>
<path d="M85.3878 39.9252L86.191 41.1147L86.281 41.253C86.5303 41.6196 86.7587 41.8063 86.9734 41.8201H87.0703C87.1049 41.8271 87.1188 41.8409 87.1188 41.8685C87.1188 41.8962 87.0703 41.9239 86.9872 41.9515C86.9041 41.9723 86.8072 41.9861 86.6964 41.9861C86.5233 41.9861 86.3641 41.9377 86.2256 41.8409C86.0871 41.7441 85.9417 41.585 85.8032 41.3706L85.0762 40.2641L85.0346 40.2018C84.9862 40.1258 84.91 40.0843 84.8062 40.0843H84.4184L84.3561 40.0981C84.3561 40.0981 84.3215 40.1465 84.3215 40.188V41.2185C84.3215 41.3844 84.3353 41.502 84.3492 41.5642C84.363 41.6265 84.4046 41.6818 84.4669 41.7302C84.55 41.7994 84.6815 41.8409 84.8546 41.8547C84.9239 41.8616 84.9585 41.8824 84.9654 41.9239C84.9654 41.9654 84.9377 41.9792 84.8685 41.9792C84.8408 41.9792 84.7854 41.9792 84.6954 41.9654C84.6123 41.9585 84.4946 41.9515 84.3215 41.9515H83.8922C83.8229 41.9515 83.7468 41.9515 83.6498 41.9654C83.5737 41.9723 83.5183 41.9792 83.4906 41.9792C83.4421 41.9792 83.4213 41.9585 83.4213 41.917C83.4213 41.8893 83.449 41.8685 83.4906 41.8616C83.6498 41.834 83.7468 41.7648 83.7952 41.6472C83.8437 41.5366 83.8645 41.3153 83.8645 40.9833V38.5835C83.8645 38.2792 83.7537 38.1132 83.539 38.0717L83.4006 38.051C83.3382 38.0372 83.3105 38.0164 83.3105 37.9818C83.3105 37.9403 83.3452 37.9196 83.4075 37.9196C83.4213 37.9196 83.4906 37.9196 83.6152 37.9334C83.6844 37.9334 83.7745 37.9403 83.8783 37.9403C83.9683 37.9403 84.1207 37.9403 84.3353 37.9196C84.4946 37.9127 84.6261 37.9058 84.7508 37.9058C85.2008 37.9058 85.5401 37.9887 85.7617 38.1547C85.9902 38.3207 86.101 38.5766 86.101 38.9086C86.101 39.3443 85.8586 39.6831 85.3808 39.9252M84.5223 39.8629H84.8546C85.1108 39.8629 85.3116 39.7938 85.457 39.6486C85.6024 39.5102 85.6786 39.3166 85.6786 39.0745C85.6786 38.791 85.5816 38.5559 85.3808 38.376C85.1801 38.1962 84.9308 38.0994 84.6192 38.0994C84.5015 38.0994 84.4253 38.1202 84.3769 38.1547C84.3353 38.1962 84.3076 38.2585 84.3076 38.3622V39.6486C84.3076 39.7385 84.3215 39.8007 84.3492 39.8215C84.3769 39.8491 84.4322 39.856 84.5223 39.856" fill="#4A3937"/>
<path d="M93.9391 38.383V39.6693C93.946 39.7246 94.0014 39.7454 94.1053 39.7454H94.7977C94.9777 39.7454 95.1093 39.7177 95.1855 39.6624C95.2685 39.6071 95.317 39.5172 95.3378 39.3858C95.3447 39.3373 95.3655 39.3166 95.4001 39.3166C95.4347 39.3166 95.4555 39.3443 95.4486 39.4065L95.4278 39.697C95.4278 39.7315 95.4278 39.7938 95.4278 39.8768C95.4278 40.105 95.4278 40.2502 95.4416 40.3125C95.4416 40.3471 95.4416 40.3747 95.4416 40.3955C95.4416 40.4439 95.4209 40.4646 95.3862 40.4646C95.3447 40.4646 95.317 40.4162 95.2962 40.3194C95.2755 40.2157 95.2478 40.1465 95.2201 40.1119C95.1924 40.0773 95.1508 40.0497 95.0816 40.0358C94.95 40.0013 94.7631 39.9874 94.5069 39.9874C94.2715 39.9874 94.1261 39.9874 94.0568 40.0013C93.9876 40.0082 93.953 40.0358 93.9391 40.0704C93.9322 40.105 93.9253 40.1672 93.9253 40.2502V41.336C93.9253 41.4882 93.9668 41.6127 94.0499 41.7026C94.133 41.7925 94.2438 41.8409 94.3823 41.8409C94.4515 41.8409 94.4861 41.8616 94.4861 41.8962C94.4861 41.9377 94.4584 41.9654 94.3961 41.9654C94.3546 41.9654 94.2922 41.9654 94.2161 41.9515C94.1538 41.9446 94.0568 41.9377 93.9322 41.9377H93.5029C93.4544 41.9377 93.3852 41.9377 93.3021 41.9515C93.2329 41.9515 93.1844 41.9515 93.1567 41.9584C93.1013 41.9584 93.0736 41.9446 93.0736 41.91C93.0736 41.8824 93.1013 41.8547 93.1636 41.8409C93.2883 41.8132 93.3713 41.7579 93.4198 41.6818C93.4683 41.6057 93.4891 41.4674 93.4891 41.2807V38.6458C93.4891 38.459 93.4614 38.3207 93.399 38.217C93.3575 38.1478 93.3159 38.1063 93.2675 38.0856C93.219 38.0648 93.1428 38.0441 93.0251 38.0372C92.9767 38.0372 92.9559 38.0164 92.949 37.9887C92.949 37.9403 92.9836 37.9127 93.0667 37.9127C93.0944 37.9127 93.1498 37.9127 93.2467 37.9265C93.4198 37.9403 93.7106 37.9542 94.1261 37.9542C94.493 37.9542 94.7285 37.9542 94.8392 37.9473L95.2478 37.9265C95.4209 37.9196 95.5386 37.9127 95.587 37.8988C95.6217 37.8919 95.6563 37.885 95.684 37.885C95.7255 37.885 95.7463 37.9058 95.7463 37.9542C95.7463 37.9749 95.7463 38.0095 95.7324 38.051C95.6978 38.1755 95.684 38.3484 95.684 38.5628C95.684 38.6527 95.6563 38.7011 95.6078 38.7011C95.5801 38.7011 95.5593 38.6734 95.5593 38.625C95.5593 38.5628 95.5455 38.5005 95.5247 38.4383C95.497 38.3415 95.4693 38.2723 95.4278 38.2446C95.3932 38.217 95.3032 38.1962 95.1785 38.1824L94.8323 38.1478C94.7215 38.1409 94.5831 38.134 94.4169 38.134C94.2022 38.134 94.0637 38.1478 94.0153 38.1755C93.9668 38.2031 93.9391 38.2723 93.9391 38.3899" fill="#4A3937"/>
<path d="M101.729 40.2434V38.7357C101.729 38.4937 101.694 38.3139 101.625 38.2101C101.556 38.0995 101.438 38.0372 101.272 38.0234C101.216 38.0234 101.189 37.9957 101.189 37.9612C101.189 37.9197 101.209 37.8989 101.244 37.8989C101.286 37.8989 101.348 37.9058 101.431 37.9197C101.507 37.9335 101.597 37.9404 101.694 37.9404C101.916 37.9404 102.047 37.9404 102.096 37.9335C102.165 37.9335 102.207 37.9266 102.22 37.9266C102.255 37.9266 102.276 37.9473 102.276 37.975C102.276 38.0027 102.255 38.0234 102.213 38.0442C102.096 38.0926 102.02 38.1617 101.985 38.2516C101.95 38.3415 101.937 38.5006 101.937 38.7496V40.195C101.937 40.7275 101.833 41.1355 101.618 41.4191C101.486 41.5989 101.293 41.7441 101.043 41.8548C100.794 41.9585 100.524 42.0139 100.24 42.0139C99.9077 42.0139 99.61 41.9516 99.3469 41.8202C99.0838 41.6888 98.8899 41.5159 98.7653 41.2946C98.6268 41.0387 98.5575 40.7137 98.5575 40.3056V38.6597C98.5575 38.4522 98.5229 38.307 98.4675 38.2309C98.4121 38.1548 98.2944 38.0995 98.1213 38.0718C98.0659 38.0649 98.0452 38.0442 98.0452 38.0096C98.0452 37.9612 98.0798 37.9404 98.1559 37.9404C98.2044 37.9404 98.2737 37.9404 98.3567 37.9404C98.4468 37.9404 98.5091 37.9473 98.5506 37.9473H99.0007C99.0007 37.9473 99.0769 37.9404 99.1669 37.9335C99.2361 37.9335 99.2915 37.9266 99.3192 37.9266C99.3607 37.9266 99.3884 37.9404 99.3884 37.975C99.3884 38.0096 99.3607 38.0372 99.2984 38.0442C99.1876 38.0718 99.1115 38.1202 99.0699 38.1894C99.0353 38.2655 99.0145 38.39 99.0145 38.5836V40.2434C99.0145 40.7413 99.0976 41.101 99.2569 41.3154C99.4785 41.6197 99.8454 41.7718 100.365 41.7718C100.829 41.7718 101.175 41.6473 101.403 41.3914C101.632 41.1355 101.75 40.7552 101.75 40.2434" fill="#4A3937"/>
<path d="M106.922 39.9252L107.725 41.1147L107.815 41.253C108.064 41.6196 108.293 41.8063 108.507 41.8201H108.604C108.639 41.8271 108.653 41.8409 108.653 41.8685C108.653 41.8962 108.604 41.9239 108.521 41.9515C108.438 41.9723 108.341 41.9861 108.237 41.9861C108.064 41.9861 107.905 41.9377 107.767 41.8409C107.628 41.7441 107.483 41.585 107.344 41.3706L106.617 40.2641L106.576 40.2018C106.527 40.1258 106.451 40.0843 106.347 40.0843H105.959L105.897 40.0981C105.897 40.0981 105.862 40.1465 105.862 40.188V41.2185C105.862 41.3844 105.876 41.502 105.89 41.5642C105.904 41.6265 105.946 41.6818 106.008 41.7302C106.091 41.7994 106.223 41.8409 106.396 41.8547C106.465 41.8616 106.5 41.8824 106.506 41.9239C106.506 41.9654 106.479 41.9792 106.409 41.9792C106.382 41.9792 106.326 41.9792 106.236 41.9654C106.153 41.9585 106.036 41.9515 105.862 41.9515H105.433C105.364 41.9515 105.288 41.9515 105.191 41.9654C105.115 41.9723 105.059 41.9792 105.032 41.9792C104.983 41.9792 104.962 41.9585 104.962 41.917C104.962 41.8893 104.99 41.8685 105.032 41.8616C105.191 41.834 105.288 41.7648 105.336 41.6472C105.385 41.5366 105.405 41.3153 105.405 40.9833V38.5835C105.405 38.2792 105.295 38.1132 105.08 38.0717L104.942 38.051C104.879 38.0372 104.852 38.0164 104.852 37.9818C104.852 37.9403 104.886 37.9196 104.949 37.9196C104.962 37.9196 105.032 37.9196 105.156 37.9334C105.225 37.9334 105.315 37.9403 105.419 37.9403C105.509 37.9403 105.662 37.9403 105.876 37.9196C106.036 37.9127 106.167 37.9058 106.292 37.9058C106.742 37.9058 107.081 37.9887 107.303 38.1547C107.531 38.3207 107.642 38.5766 107.642 38.9086C107.642 39.3443 107.4 39.6831 106.922 39.9252ZM106.063 39.8629H106.396C106.652 39.8629 106.853 39.7938 106.998 39.6486C107.143 39.5102 107.22 39.3166 107.22 39.0745C107.22 38.791 107.123 38.5559 106.922 38.376C106.721 38.1962 106.472 38.0994 106.16 38.0994C106.043 38.0994 105.966 38.1202 105.918 38.1547C105.876 38.1962 105.856 38.2585 105.856 38.3622V39.6486C105.856 39.7385 105.869 39.8007 105.897 39.8215C105.925 39.8491 105.98 39.856 106.07 39.856" fill="#4A3937"/>
<path d="M114.455 39.0609V41.5091C114.455 41.7304 114.455 41.8618 114.441 41.9102C114.434 41.9586 114.407 41.9794 114.358 41.9794C114.33 41.9794 114.31 41.9724 114.289 41.9517L114.227 41.8756L111.762 39.0609L111.734 39.0263C111.734 39.0263 111.706 39.0055 111.692 39.0055C111.658 39.0055 111.637 39.047 111.637 39.1369V41.4468C111.658 41.5713 111.692 41.6612 111.741 41.7096C111.796 41.7581 111.893 41.7926 112.052 41.8203C112.115 41.8272 112.149 41.8549 112.149 41.8964C112.149 41.931 112.129 41.9517 112.087 41.9517C112.059 41.9517 112.032 41.9517 111.997 41.9517C111.976 41.9517 111.893 41.9448 111.741 41.931L111.443 41.9171H111.305C111.228 41.9171 111.159 41.924 111.09 41.9379C111.042 41.9448 111.007 41.9448 110.979 41.9448C110.931 41.9448 110.903 41.924 110.896 41.8895C110.896 41.8618 110.924 41.8341 110.979 41.8203C111.145 41.765 111.256 41.6889 111.312 41.5921C111.367 41.4953 111.395 41.3431 111.395 41.1356V39.1508C111.395 38.8119 111.339 38.5491 111.235 38.3555C111.132 38.1618 110.972 38.0512 110.771 38.0235C110.723 38.0166 110.695 37.9958 110.695 37.9612C110.695 37.9267 110.716 37.9059 110.758 37.9059C110.765 37.9059 110.785 37.9059 110.806 37.9059H111.166C111.215 37.9059 111.249 37.9059 111.277 37.9059C111.325 37.9059 111.374 37.9336 111.422 37.9889L114.109 41.0319C114.15 41.0803 114.178 41.101 114.192 41.101C114.213 41.101 114.22 41.0803 114.227 41.0457V39.2061L114.192 38.5353C114.171 38.3693 114.123 38.2517 114.047 38.1826C113.97 38.1134 113.832 38.065 113.631 38.0304C113.576 38.0235 113.548 37.9958 113.548 37.9612C113.548 37.9267 113.576 37.9059 113.631 37.9059C113.659 37.9059 113.7 37.9059 113.756 37.9128C113.887 37.9267 114.067 37.9336 114.296 37.9336C114.42 37.9336 114.51 37.9336 114.587 37.9128C114.649 37.899 114.697 37.8921 114.732 37.8921C114.781 37.8921 114.808 37.9128 114.815 37.9543C114.815 37.982 114.794 37.9958 114.76 38.0097C114.642 38.0373 114.559 38.0857 114.524 38.1549C114.49 38.224 114.469 38.3485 114.469 38.5353V39.0401L114.455 39.0609Z" fill="#4A3937"/>
<path d="M118.395 38.7912V40.9766C118.395 41.2532 118.409 41.4261 118.443 41.516C118.485 41.6128 118.527 41.682 118.589 41.7235C118.644 41.765 118.734 41.7926 118.859 41.8134C118.956 41.8272 119.004 41.848 119.004 41.8825C119.004 41.931 118.977 41.9517 118.914 41.9517C118.887 41.9517 118.845 41.9517 118.804 41.9448C118.741 41.9379 118.637 41.931 118.492 41.931H118.07L117.723 41.9448C117.668 41.9448 117.62 41.9517 117.585 41.9517C117.529 41.9517 117.509 41.931 117.509 41.8895C117.509 41.8549 117.536 41.8341 117.599 41.8272C117.744 41.7995 117.841 41.7511 117.883 41.6751C117.924 41.599 117.945 41.433 117.945 41.191V38.6874C117.945 38.4454 117.917 38.2863 117.862 38.1964C117.806 38.1134 117.689 38.0581 117.509 38.0235C117.446 38.0097 117.419 37.9889 117.419 37.9543C117.419 37.9128 117.446 37.8921 117.502 37.8921C117.516 37.8921 117.536 37.8921 117.557 37.8921C117.703 37.9059 117.89 37.9198 118.125 37.9198C118.27 37.9198 118.395 37.9198 118.499 37.9128L118.693 37.899C118.727 37.899 118.755 37.899 118.769 37.899C118.824 37.899 118.845 37.9198 118.845 37.9543C118.845 37.9889 118.817 38.0166 118.769 38.0304L118.617 38.0857C118.471 38.1411 118.402 38.3762 118.402 38.7842" fill="#4A3937"/>
<path d="M124.308 38.2447H123.484C123.401 38.2447 123.346 38.2586 123.325 38.2793C123.304 38.3001 123.29 38.3623 123.29 38.4522V41.4329C123.304 41.6612 123.429 41.7995 123.678 41.841C123.747 41.8548 123.782 41.8756 123.782 41.9101C123.782 41.9516 123.754 41.9724 123.699 41.9724C123.678 41.9724 123.63 41.9724 123.553 41.9516C123.519 41.9516 123.429 41.9447 123.29 41.9447H122.847C122.764 41.9447 122.695 41.9447 122.639 41.9516C122.529 41.9655 122.466 41.9724 122.446 41.9724C122.383 41.9724 122.356 41.9516 122.356 41.9101C122.356 41.8825 122.39 41.8617 122.453 41.8548C122.605 41.8341 122.702 41.7926 122.757 41.7303C122.813 41.6681 122.833 41.5505 122.833 41.3914V38.4176C122.833 38.3485 122.82 38.3001 122.799 38.2862C122.778 38.2724 122.729 38.2586 122.653 38.2586H121.878C121.719 38.2586 121.608 38.2931 121.532 38.3554C121.462 38.4176 121.407 38.5352 121.365 38.715C121.345 38.7911 121.324 38.8257 121.289 38.8257C121.255 38.8257 121.234 38.798 121.234 38.7496C121.234 38.7081 121.248 38.632 121.269 38.5283C121.296 38.39 121.31 38.2724 121.31 38.1825C121.31 38.0926 121.317 38.0373 121.338 38.0027C121.359 37.9681 121.4 37.9612 121.469 37.9612H124.613C124.717 37.9612 124.786 37.975 124.807 37.9958C124.827 38.0165 124.841 38.0857 124.841 38.2032C124.841 38.3208 124.841 38.4038 124.855 38.4522C124.862 38.5214 124.869 38.5629 124.869 38.5974C124.869 38.6528 124.848 38.6873 124.807 38.6943C124.772 38.6943 124.751 38.6666 124.737 38.6044C124.71 38.466 124.668 38.3761 124.613 38.3346C124.557 38.2931 124.447 38.2724 124.28 38.2724" fill="#4A3937"/>
<path d="M130.796 40.2434V38.7357C130.796 38.4937 130.761 38.3139 130.692 38.2101C130.623 38.0995 130.505 38.0372 130.339 38.0234C130.284 38.0234 130.256 37.9957 130.256 37.9612C130.256 37.9197 130.277 37.8989 130.311 37.8989C130.353 37.8989 130.415 37.9058 130.498 37.9197C130.574 37.9335 130.664 37.9404 130.761 37.9404C130.983 37.9404 131.115 37.9404 131.163 37.9335C131.232 37.9335 131.274 37.9266 131.288 37.9266C131.322 37.9266 131.343 37.9473 131.343 37.975C131.343 38.0027 131.322 38.0234 131.281 38.0442C131.163 38.0926 131.087 38.1617 131.052 38.2516C131.018 38.3415 130.997 38.5006 130.997 38.7496V40.195C130.997 40.7275 130.893 41.1355 130.678 41.4191C130.547 41.5989 130.353 41.7441 130.104 41.8548C129.854 41.9585 129.584 42.0139 129.3 42.0139C128.968 42.0139 128.67 41.9516 128.407 41.8202C128.144 41.6888 127.95 41.5159 127.826 41.2946C127.687 41.0387 127.618 40.7137 127.618 40.3056V38.6597C127.618 38.4522 127.583 38.307 127.528 38.2309C127.472 38.1548 127.355 38.0995 127.182 38.0718C127.126 38.0649 127.105 38.0442 127.105 38.0096C127.105 37.9612 127.14 37.9404 127.216 37.9404C127.265 37.9404 127.334 37.9404 127.417 37.9404C127.507 37.9404 127.569 37.9473 127.611 37.9473H128.061C128.061 37.9473 128.137 37.9404 128.227 37.9335C128.296 37.9335 128.352 37.9266 128.379 37.9266C128.421 37.9266 128.449 37.9404 128.449 37.975C128.449 38.0096 128.421 38.0372 128.359 38.0442C128.248 38.0718 128.172 38.1202 128.13 38.1894C128.096 38.2655 128.075 38.39 128.075 38.5836V40.2434C128.075 40.7413 128.158 41.101 128.317 41.3154C128.539 41.6197 128.906 41.7718 129.425 41.7718C129.889 41.7718 130.235 41.6473 130.464 41.3914C130.692 41.1355 130.81 40.7552 130.81 40.2434" fill="#4A3937"/>
<path d="M135.982 39.9252L136.785 41.1147L136.875 41.253C137.125 41.6196 137.353 41.8063 137.568 41.8201H137.665C137.699 41.8271 137.713 41.8409 137.713 41.8685C137.713 41.8962 137.665 41.9239 137.582 41.9515C137.499 41.9723 137.402 41.9861 137.298 41.9861C137.125 41.9861 136.965 41.9377 136.827 41.8409C136.688 41.7441 136.55 41.585 136.405 41.3706L135.678 40.2641L135.636 40.2018C135.587 40.1258 135.511 40.0843 135.407 40.0843H135.02L134.957 40.0981C134.957 40.0981 134.923 40.1465 134.923 40.188V41.2185C134.923 41.3844 134.937 41.502 134.95 41.5642C134.964 41.6265 135.006 41.6818 135.068 41.7302C135.151 41.7994 135.283 41.8409 135.456 41.8547C135.525 41.8616 135.56 41.8824 135.567 41.9239C135.567 41.9654 135.539 41.9792 135.47 41.9792C135.442 41.9792 135.387 41.9792 135.297 41.9654C135.214 41.9585 135.096 41.9515 134.923 41.9515H134.493C134.424 41.9515 134.348 41.9515 134.251 41.9654C134.175 41.9723 134.12 41.9792 134.092 41.9792C134.043 41.9792 134.023 41.9585 134.023 41.917C134.023 41.8893 134.05 41.8685 134.092 41.8616C134.251 41.834 134.348 41.7648 134.397 41.6472C134.445 41.5366 134.466 41.3153 134.466 40.9833V38.5835C134.466 38.2792 134.355 38.1132 134.14 38.0717L134.002 38.051C133.94 38.0372 133.912 38.0164 133.912 37.9818C133.912 37.9403 133.946 37.9196 134.009 37.9196C134.023 37.9196 134.092 37.9196 134.217 37.9334C134.286 37.9334 134.376 37.9403 134.48 37.9403C134.57 37.9403 134.722 37.9403 134.937 37.9196C135.096 37.9127 135.227 37.9058 135.352 37.9058C135.802 37.9058 136.141 37.9887 136.363 38.1547C136.591 38.3207 136.702 38.5766 136.702 38.9086C136.702 39.3443 136.46 39.6831 135.982 39.9252ZM135.124 39.8629H135.456C135.712 39.8629 135.913 39.7938 136.058 39.6486C136.204 39.5102 136.28 39.3166 136.28 39.0745C136.28 38.791 136.183 38.5559 135.982 38.376C135.781 38.1962 135.532 38.0994 135.221 38.0994C135.103 38.0994 135.027 38.1202 134.978 38.1547C134.937 38.1962 134.916 38.2585 134.916 38.3622V39.6486C134.916 39.7385 134.93 39.8007 134.957 39.8215C134.985 39.8491 135.04 39.856 135.131 39.856" fill="#4A3937"/>
<path d="M140.933 38.3969V39.5726C140.933 39.6625 140.94 39.7178 140.961 39.7385C140.974 39.7593 141.03 39.7662 141.113 39.7662H141.563C141.764 39.7662 141.93 39.7524 142.048 39.7316C142.151 39.7109 142.221 39.6832 142.248 39.6486C142.276 39.6141 142.311 39.5311 142.332 39.4066C142.338 39.3582 142.366 39.3374 142.408 39.3374C142.449 39.3374 142.463 39.3651 142.463 39.4135C142.463 39.4273 142.463 39.4481 142.463 39.4757C142.449 39.6625 142.435 39.8354 142.435 39.9944C142.435 40.112 142.435 40.2296 142.456 40.3471C142.456 40.3886 142.456 40.4163 142.456 40.4301C142.456 40.4785 142.435 40.4993 142.401 40.4993C142.359 40.4993 142.332 40.4785 142.325 40.437L142.311 40.354C142.29 40.2226 142.241 40.1327 142.172 40.0912C142.103 40.0428 141.985 40.0221 141.819 40.0221H141.175C141.078 40.0221 141.016 40.029 140.981 40.0498C140.947 40.0705 140.933 40.1051 140.933 40.1673V41.3361C140.933 41.5021 140.967 41.6058 141.023 41.6473C141.078 41.6888 141.231 41.7096 141.473 41.7096C142.235 41.7096 142.726 41.5367 142.948 41.1909C142.969 41.1563 142.989 41.1425 143.017 41.1355C143.052 41.1355 143.072 41.1563 143.072 41.2116C143.072 41.3361 143.003 41.4883 142.858 41.6611C142.685 41.8686 142.47 41.9724 142.207 41.9724C142.151 41.9724 142.075 41.9724 141.978 41.9585C141.604 41.9239 141.3 41.9032 141.057 41.9032C140.718 41.9032 140.476 41.917 140.337 41.9378C140.261 41.9516 140.213 41.9585 140.185 41.9585C140.123 41.9585 140.095 41.9378 140.095 41.8963C140.095 41.8617 140.123 41.841 140.171 41.8271L140.282 41.7925C140.42 41.7511 140.49 41.6197 140.49 41.3845V38.7219C140.49 38.4453 140.462 38.2516 140.4 38.1617C140.337 38.0649 140.22 38.0165 140.04 38.0165C139.984 38.0165 139.957 37.9957 139.957 37.9612C139.957 37.9058 139.998 37.8782 140.088 37.8782C140.137 37.8782 140.199 37.8782 140.282 37.892C140.559 37.9197 140.898 37.9404 141.286 37.9404C141.521 37.9404 141.736 37.9404 141.916 37.9266L142.332 37.9058C142.449 37.9058 142.518 37.8989 142.539 37.892C142.595 37.8851 142.629 37.8782 142.657 37.8782C142.719 37.8782 142.754 37.9058 142.754 37.9612C142.754 37.9819 142.754 38.0027 142.747 38.0303C142.747 38.058 142.733 38.1341 142.726 38.2655L142.712 38.4384C142.705 38.549 142.692 38.6182 142.685 38.6527C142.678 38.6804 142.65 38.6942 142.622 38.6942C142.588 38.6942 142.567 38.6666 142.567 38.6043V38.5283C142.567 38.466 142.553 38.4038 142.532 38.3485C142.498 38.2585 142.422 38.2032 142.311 38.1756C142.2 38.1479 141.992 38.1341 141.688 38.1341H141.231C141.113 38.1341 141.03 38.1479 140.995 38.1825C140.961 38.2101 140.94 38.2793 140.94 38.383" fill="#4A3937"/>
<path d="M62.8014 0.698486H61.5689L49.3756 20.3326V20.2842H48.8563L38.0201 0.698486H36.7876H35.9498L32.3008 28.4311H33.3186L36.7114 2.62801L47.243 21.7988H49.3479L61.1188 3.05679L64.1308 28.4311H66.4504L62.8014 0.698486Z" fill="#4A3937"/>
<path d="M23.7288 28.521L19.4151 23.5692C20.6476 21.5982 21.3262 18.8941 21.3262 15.6713H19.6644C19.6644 18.168 19.2836 20.713 18.4873 22.5042L13.4535 16.7295H11.7155L17.7949 23.7145C17.0748 24.738 15.8354 26.1143 14.7067 26.8681C13.1073 27.9401 11.2239 28.6662 9.50676 28.6662C7.27028 28.6662 5.05457 27.5666 3.64205 26.0728C2.27109 24.6205 1.91796 22.9122 1.91796 20.8236C1.91796 19.0809 2.39572 16.8124 4.45217 14.7515C5.67081 13.5343 6.66096 12.6353 9.38905 11.5495C13.5089 9.93809 16.2162 8.44426 16.2162 5.35287C16.2162 3.68615 15.3922 2.37905 14.3328 1.42467C13.2735 0.477194 11.8402 0 10.0538 0C8.26735 0 6.8756 0.463362 5.71236 1.39009C4.52141 2.3998 3.77361 3.52709 3.77361 5.35287C3.77361 6.11362 4.21675 7.42071 5.10304 8.56875C5.80929 9.48164 7.56801 11.5495 7.56801 11.5495C2.81809 13.7003 0.103846 16.9438 -1.54483e-05 20.8651C-0.0554081 23.3756 0.837799 25.4296 2.67961 27.0133C4.41063 28.521 6.65403 29.2748 9.40982 29.2748C12.7542 29.2748 16.1747 27.6012 18.6119 24.655L21.9701 28.5141H23.7219L23.7288 28.521ZM5.77467 7.48296C5.06842 6.29343 4.94378 5.48427 4.94378 4.94484C4.94378 3.99737 5.24844 2.91849 6.29398 1.8742C7.18719 0.982052 8.77973 0.435699 10.0607 0.435699C11.4524 0.435699 12.7749 0.809155 13.8759 1.88803C14.4367 2.43438 15.0183 3.62391 15.0183 4.92409C15.0183 6.08595 14.499 7.44146 13.4812 8.4166C12.8719 9.01828 12.1102 9.46781 11.487 9.83435C11.3278 9.93117 9.99837 10.5605 9.60369 10.7265C9.58292 10.7334 9.07746 10.934 8.78665 11.0446C8.78665 11.0446 6.56402 8.80389 5.77467 7.48296Z" fill="#4A3937"/>
<path d="M94.6038 4.84801C92.4158 2.13008 89.2169 0.912891 85.0001 0.767658C84.8063 0.760742 84.6193 0.760742 84.4324 0.760742C84.2454 0.760742 84.0931 0.760742 83.8992 0.767658C79.6894 0.912891 76.4697 2.12317 74.2609 4.84801C72.2875 7.29623 71.2974 10.5605 71.2974 14.6409C71.2974 18.7212 72.2875 21.9855 74.2609 24.4337C76.4489 27.1517 79.6478 28.3688 83.8646 28.5141C84.0585 28.521 84.2454 28.521 84.4324 28.521C84.6193 28.521 84.7716 28.521 84.9655 28.5141C89.1754 28.3688 92.3951 27.1586 94.6038 24.4337C96.5772 21.9855 97.5674 18.7212 97.5674 14.6409C97.5674 10.5605 96.5772 7.29623 94.6038 4.84801ZM92.5128 23.5762C90.6571 26.0175 87.9567 28.0023 84.4116 28.0023C80.8665 28.0023 78.2007 26.0244 76.345 23.5762C74.6348 21.3008 73.7762 18.3201 73.7762 14.634C73.7762 10.9271 74.6348 7.94632 76.345 5.69175C78.2007 3.25045 80.9011 1.2656 84.4462 1.2656C87.9636 1.2656 90.6571 3.24353 92.5128 5.69175C94.223 7.96707 95.0816 10.9478 95.0816 14.634C95.0816 18.3409 94.223 21.3216 92.5128 23.5762Z" fill="#4A3937"/>
<path d="M119.108 16.2799C117.149 15.2356 113.645 14.4403 111.796 13.9838C108.591 13.1954 106.832 12.0336 105.897 11.2866C104.651 10.2769 104.034 9.07357 104.034 7.6904C104.034 5.76088 105.052 3.7622 106.548 2.72482C107.808 1.82576 109.138 1.26557 111.132 1.26557C113.126 1.26557 115.203 1.79809 116.629 2.87005C118.243 4.08032 118.991 6.39022 119.053 8.54105H121.594C121.449 6.04443 120.493 4.1149 118.707 2.75248C116.983 1.39006 114.725 0.795293 111.838 0.712302C111.63 0.712302 110.848 0.705386 110.654 0.712302C108.03 0.829872 105.876 1.29323 104.208 2.4551C102.4 3.66537 101.493 5.40817 101.493 7.68349C101.493 9.48852 102.144 11.0584 103.654 12.0958C104.983 13.0156 106.804 13.645 110.315 14.5094C110.654 14.5855 116.041 16.0448 116.976 16.5842C118.866 17.6216 119.814 19.1707 119.814 21.2247C119.814 23.2787 119.254 24.5305 117.633 25.9206C115.653 27.6219 113.894 27.9746 111.796 27.9815C109.345 27.9815 107.143 26.9027 105.682 25.6232C104.118 24.2539 103.481 22.1722 103.314 19.8485H100.732C100.932 22.5664 101.943 24.6827 103.785 26.1903C105.592 27.7464 108.057 28.4587 111.118 28.5279C111.332 28.5279 112.115 28.5279 112.302 28.5279C115.238 28.438 117.592 27.9124 119.427 26.6744C121.435 25.2913 122.439 23.3617 122.439 20.8859C122.439 18.659 121.289 17.4279 119.115 16.2661" fill="#4A3937"/>
<path d="M144.215 16.2799C142.255 15.2356 138.752 14.4403 136.903 13.9838C133.697 13.1954 131.938 12.0336 131.004 11.2866C129.757 10.2769 129.141 9.07357 129.141 7.6904C129.141 5.76088 130.159 3.7622 131.655 2.72482C132.908 1.82576 134.244 1.26557 136.238 1.26557C138.232 1.26557 140.31 1.79809 141.736 2.87005C143.349 4.08032 144.097 6.39022 144.159 8.54105H146.701C146.555 6.04443 145.6 4.1149 143.813 2.75248C142.089 1.39006 139.832 0.795293 136.945 0.712302C136.737 0.712302 135.954 0.705386 135.761 0.712302C133.136 0.829872 130.983 1.29323 129.314 2.4551C127.507 3.66537 126.6 5.40817 126.6 7.68349C126.6 9.48852 127.251 11.0584 128.76 12.0958C130.09 13.0156 131.911 13.645 135.421 14.5094C135.761 14.5855 141.148 16.0448 142.082 16.5842C143.973 17.6216 144.921 19.1707 144.921 21.2247C144.921 23.2787 144.36 24.5305 142.74 25.9206C140.76 27.6219 139.001 27.9746 136.903 27.9815C134.452 27.9815 132.25 26.9027 130.789 25.6232C129.224 24.2539 128.587 22.1722 128.421 19.8485H125.838C126.039 22.5664 127.05 24.6827 128.892 26.1903C130.699 27.7464 133.164 28.4587 136.231 28.5279C136.446 28.5279 137.228 28.5279 137.415 28.5279C140.351 28.438 142.699 27.9124 144.54 26.6744C146.548 25.2913 147.552 23.3617 147.552 20.8859C147.552 18.659 146.403 17.4279 144.229 16.2661" fill="#4A3937"/>
</g>
<defs>
<clipPath id="clip0_235_291">
<rect width="147.538" height="42" fill="white"/>
</clipPath>
</defs>
</svg>
